<?xml version="1.0" encoding="utf-8"?>
<!-- Generator: Adobe Illustrator 16.0.3, SVG Export Plug-In . SVG Version: 6.00 Build 0)  -->
<!DOCTYPE svg PUBLIC "-//W3C//DTD SVG 1.1//EN" "http://www.w3.org/Graphics/SVG/1.1/DTD/svg11.dtd">
<svg version="1.1" id="Layer_1" xmlns="http://www.w3.org/2000/svg" xmlns:xlink="http://www.w3.org/1999/xlink" x="0px" y="0px"
	 width="139px" height="111px" viewBox="0 0 139 111" enable-background="new 0 0 139 111" xml:space="preserve">
<g>
	<g>
		<path fill="#FFFFFF" d="M4.99,67.61c0-1.33,1.05-2.39,2.39-2.39h0.53c1.02,0,1.74,0.53,2.17,1.24l5.77,9.39l5.8-9.43
			c0.5-0.81,1.18-1.21,2.14-1.21h0.53c1.33,0,2.39,1.05,2.39,2.39v17.24c0,1.33-1.05,2.39-2.39,2.39c-1.3,0-2.36-1.09-2.36-2.39
			V74.03l-4.19,6.45c-0.5,0.74-1.12,1.21-1.98,1.21c-0.87,0-1.49-0.47-1.98-1.21l-4.12-6.36v10.79c0,1.3-1.05,2.33-2.36,2.33
			s-2.33-1.02-2.33-2.33V67.61z"/>
		<path fill="#FFFFFF" d="M28.37,83.98l7.56-17.08c0.53-1.18,1.49-1.89,2.79-1.89h0.28c1.3,0,2.23,0.71,2.76,1.89l7.56,17.08
			c0.16,0.34,0.25,0.65,0.25,0.96c0,1.27-0.99,2.29-2.26,2.29c-1.12,0-1.86-0.65-2.29-1.64l-1.46-3.41h-9.55l-1.52,3.56
			c-0.4,0.93-1.21,1.49-2.2,1.49c-1.24,0-2.2-0.99-2.2-2.23C28.09,84.66,28.22,84.32,28.37,83.98z M41.8,77.96l-3.01-7.16
			l-3.01,7.16H41.8z"/>
		<path fill="#FFFFFF" d="M50.42,84.75c-0.53-0.37-0.9-1.05-0.9-1.8c0-1.24,0.99-2.2,2.23-2.2c0.62,0,1.05,0.22,1.36,0.43
			c1.64,1.21,3.44,1.95,5.55,1.95c1.95,0,3.13-0.78,3.13-2.05v-0.06c0-1.21-0.74-1.83-4.37-2.76c-4.37-1.12-7.19-2.33-7.19-6.63
			v-0.06c0-3.94,3.16-6.54,7.6-6.54c2.64,0,4.93,0.68,6.88,1.92c0.53,0.31,1.05,0.96,1.05,1.89c0,1.24-0.99,2.2-2.23,2.2
			c-0.46,0-0.84-0.12-1.21-0.34c-1.58-0.93-3.07-1.46-4.56-1.46c-1.83,0-2.79,0.84-2.79,1.89v0.06c0,1.43,0.93,1.89,4.68,2.85
			c4.4,1.15,6.88,2.73,6.88,6.51v0.06c0,4.31-3.29,6.73-7.97,6.73C55.72,87.36,52.83,86.49,50.42,84.75z"/>
		<path fill="#FFFFFF" d="M67.62,84.75c-0.53-0.37-0.9-1.05-0.9-1.8c0-1.24,0.99-2.2,2.23-2.2c0.62,0,1.05,0.22,1.36,0.43
			c1.64,1.21,3.44,1.95,5.55,1.95c1.95,0,3.13-0.78,3.13-2.05v-0.06c0-1.21-0.74-1.83-4.37-2.76c-4.37-1.12-7.19-2.33-7.19-6.63
			v-0.06c0-3.94,3.16-6.54,7.6-6.54c2.64,0,4.93,0.68,6.88,1.92c0.53,0.31,1.05,0.96,1.05,1.89c0,1.24-0.99,2.2-2.23,2.2
			c-0.46,0-0.84-0.12-1.21-0.34c-1.58-0.93-3.07-1.46-4.56-1.46c-1.83,0-2.79,0.84-2.79,1.89v0.06c0,1.43,0.93,1.89,4.68,2.85
			c4.4,1.15,6.88,2.73,6.88,6.51v0.06c0,4.31-3.29,6.73-7.97,6.73C72.93,87.36,70.04,86.49,67.62,84.75z"/>
		<path fill="#FFFFFF" d="M85.58,67.55c0-1.33,1.05-2.39,2.39-2.39s2.39,1.05,2.39,2.39v6.39h8.8v-6.39c0-1.33,1.05-2.39,2.39-2.39
			s2.39,1.05,2.39,2.39v17.3c0,1.33-1.05,2.39-2.39,2.39s-2.39-1.05-2.39-2.39v-6.51h-8.8v6.51c0,1.33-1.05,2.39-2.39,2.39
			s-2.39-1.05-2.39-2.39V67.55z"/>
		<path fill="#FFFFFF" d="M107.03,67.55c0-1.33,1.05-2.39,2.39-2.39c1.33,0,2.39,1.05,2.39,2.39v17.3c0,1.33-1.05,2.39-2.39,2.39
			c-1.33,0-2.39-1.05-2.39-2.39V67.55z"/>
		<path fill="#FFFFFF" d="M114.91,67.73c0-1.33,1.05-2.39,2.39-2.39h6.48c5.18,0,8.31,3.07,8.31,7.5v0.06
			c0,5.02-3.91,7.63-8.77,7.63h-3.63v4.31c0,1.33-1.05,2.39-2.39,2.39c-1.33,0-2.39-1.05-2.39-2.39V67.73z M123.46,76.29
			c2.39,0,3.78-1.43,3.78-3.29v-0.06c0-2.14-1.49-3.29-3.88-3.29h-3.69v6.64H123.46z"/>
	</g>
	<g>
		<g>
			<g>
				<path fill="#FF6D00" d="M54.8,51.82c0,0-3.02-14.22,4.77-21.13l2.73,15.19C62.3,45.88,57.34,48.41,54.8,51.82z"/>
			</g>
			<g opacity="0.08">
				<path d="M54.8,51.82c0,0-3.02-14.22,4.77-21.13l0.83,4.6C60.4,35.29,55.23,40.48,54.8,51.82z"/>
			</g>
		</g>
		<g>
			<g>
				<path fill="#FF6D00" d="M82.27,51.82c0,0,3.02-14.22-4.77-21.13l-2.73,15.19C74.77,45.88,79.74,48.41,82.27,51.82z"/>
			</g>
			<g opacity="0.08">
				<path d="M82.27,51.82c0,0,3.02-14.22-4.77-21.13l-0.83,4.6C76.68,35.29,81.85,40.48,82.27,51.82z"/>
			</g>
		</g>
		<g>
			<defs>
				<path id="SVGID_1_" d="M62.26,48h12.27c0,0,3.07-3.23,3.55-18.61c0.49-15.38-4.97-24.32-9.35-24.32
					c-4.87,0-9.93,8.78-9.93,24.27C58.81,41.38,62.26,48,62.26,48z"/>
			</defs>
			<use xlink:href="#SVGID_1_"  overflow="visible" fill="#EFEFEF"/>
			<clipPath id="SVGID_2_">
				<use xlink:href="#SVGID_1_"  overflow="visible"/>
			</clipPath>
		</g>
		<g>
			<circle fill="#4F1272" cx="68.46" cy="34.31" r="1.62"/>
		</g>
		<g>
			<polygon fill="#4F1272" points="63.5,49 65.04,50 71.9,50 73.61,49 			"/>
		</g>
		<g>
			<defs>
				<path id="SVGID_3_" d="M68.46,61.17c0,0,3-3.41,3-6.91c0-3.51-2.92-3.31-2.92-3.31s-3.12,0.19-3.12,3.21
					S68.46,61.17,68.46,61.17z"/>
			</defs>
			<use xlink:href="#SVGID_3_"  overflow="visible" fill="#A7ADB7"/>
			<clipPath id="SVGID_4_">
				<use xlink:href="#SVGID_3_"  overflow="visible"/>
			</clipPath>
			<g clip-path="url(#SVGID_4_)">
				<path fill="#888C91" d="M68.46,63.59c0,0,3-3.41,3-6.91c0-3.51-2.92-3.31-2.92-3.31s-3.12,0.19-3.12,3.21
					C65.43,59.6,68.46,63.59,68.46,63.59z"/>
			</g>
		</g>
		<g>
			<defs>
				<circle id="SVGID_5_" cx="68.54" cy="25.87" r="4.33"/>
			</defs>
			<use xlink:href="#SVGID_5_"  overflow="visible" fill="#4F1272"/>
			<clipPath id="SVGID_6_">
				<use xlink:href="#SVGID_5_"  overflow="visible"/>
			</clipPath>
			<g clip-path="url(#SVGID_6_)">
				<circle fill="#754492" cx="68.54" cy="28.73" r="4.33"/>
			</g>
		</g>
		<g opacity="0.05">
			<defs>
				<path id="SVGID_7_" opacity="0.05" d="M68.76,5.09c4.38,0,9.82,8.94,9.33,24.32C77.6,44.8,74.53,48,74.53,48h-8.52
					C66.01,48,76.58,33.77,68.76,5.09"/>
			</defs>
			<use xlink:href="#SVGID_7_"  overflow="visible"/>
			<clipPath id="SVGID_8_">
				<use xlink:href="#SVGID_7_"  overflow="visible"/>
			</clipPath>
		</g>
	</g>
	<g>
		<path fill="#888C91" d="M32.99,100.05c-1.54,0-2.88-1.23-2.88-3.06v-0.02c0-1.71,1.2-3.06,2.79-3.06c1.65,0,2.7,1.36,2.7,3.04
			c0,0.14-0.14,0.27-0.28,0.27h-4.61c0.1,1.46,1.15,2.31,2.3,2.31c0.84,0,1.43-0.35,1.9-0.81c0.05-0.05,0.1-0.08,0.18-0.08
			c0.15,0,0.28,0.12,0.28,0.27c0,0.06-0.02,0.13-0.09,0.2C34.7,99.67,34.05,100.05,32.99,100.05z M34.98,96.7
			c-0.08-1.19-0.76-2.28-2.11-2.28c-1.16,0-2.06,0.98-2.17,2.28H34.98z"/>
		<path fill="#888C91" d="M36.38,94.28c0-0.16,0.12-0.29,0.28-0.29c0.16,0,0.29,0.12,0.29,0.29v0.81c0.38-0.61,0.91-1.19,1.96-1.19
			c1.03,0,1.66,0.59,1.98,1.27c0.38-0.66,1.01-1.27,2.12-1.27c1.39,0,2.26,0.98,2.26,2.45v3.32c0,0.17-0.12,0.29-0.28,0.29
			s-0.29-0.12-0.29-0.29v-3.25c0-1.27-0.66-2-1.74-2c-0.99,0-1.85,0.76-1.85,2.07v3.18c0,0.17-0.12,0.29-0.28,0.29
			c-0.16,0-0.29-0.12-0.29-0.29v-3.28c0-1.22-0.67-1.97-1.72-1.97s-1.88,0.92-1.88,2.11v3.15c0,0.17-0.12,0.29-0.28,0.29
			c-0.16,0-0.29-0.12-0.29-0.29V94.28z"/>
		<path fill="#888C91" d="M45.98,98.21v-0.02c0-1.22,1.05-1.91,2.57-1.91c0.82,0,1.38,0.1,1.95,0.25v-0.25c0-1.19-0.73-1.8-1.94-1.8
			c-0.65,0-1.19,0.16-1.67,0.39c-0.05,0.02-0.09,0.03-0.13,0.03c-0.14,0-0.26-0.13-0.26-0.27c0-0.14,0.1-0.23,0.16-0.25
			c0.6-0.27,1.19-0.44,1.94-0.44c0.79,0,1.43,0.22,1.85,0.65c0.39,0.39,0.6,0.93,0.6,1.66v3.42c0,0.17-0.12,0.29-0.28,0.29
			c-0.16,0-0.28-0.12-0.28-0.29v-0.74c-0.4,0.56-1.13,1.12-2.25,1.12C47.16,100.05,45.98,99.43,45.98,98.21z M50.51,97.71v-0.67
			c-0.5-0.13-1.15-0.27-1.99-0.27c-1.24,0-1.94,0.55-1.94,1.37v0.02c0,0.85,0.81,1.35,1.71,1.35
			C49.48,99.52,50.51,98.78,50.51,97.71z"/>
		<path fill="#888C91" d="M52.23,92.02c0-0.2,0.15-0.35,0.35-0.35s0.36,0.15,0.36,0.35v0.2c0,0.2-0.16,0.35-0.36,0.35
			s-0.35-0.15-0.35-0.35V92.02z M52.29,94.28c0-0.16,0.12-0.29,0.28-0.29c0.16,0,0.29,0.12,0.29,0.29v5.39
			c0,0.17-0.12,0.29-0.28,0.29c-0.16,0-0.29-0.12-0.29-0.29V94.28z"/>
		<path fill="#888C91" d="M54.3,91.74c0-0.16,0.12-0.29,0.28-0.29s0.29,0.13,0.29,0.29v7.93c0,0.17-0.12,0.29-0.28,0.29
			c-0.16,0-0.29-0.12-0.29-0.29V91.74z"/>
		<path fill="#888C91" d="M58.81,94.28c0-0.16,0.12-0.29,0.28-0.29c0.16,0,0.29,0.12,0.29,0.29v0.81c0.38-0.61,0.91-1.19,1.96-1.19
			c1.03,0,1.66,0.59,1.98,1.27c0.38-0.66,1.01-1.27,2.12-1.27c1.39,0,2.26,0.98,2.26,2.45v3.32c0,0.17-0.11,0.29-0.28,0.29
			c-0.16,0-0.29-0.12-0.29-0.29v-3.25c0-1.27-0.66-2-1.74-2c-0.99,0-1.85,0.76-1.85,2.07v3.18c0,0.17-0.12,0.29-0.28,0.29
			c-0.16,0-0.29-0.12-0.29-0.29v-3.28c0-1.22-0.67-1.97-1.72-1.97s-1.88,0.92-1.88,2.11v3.15c0,0.17-0.12,0.29-0.28,0.29
			s-0.29-0.12-0.29-0.29V94.28z"/>
		<path fill="#888C91" d="M68.42,98.21v-0.02c0-1.22,1.05-1.91,2.57-1.91c0.82,0,1.38,0.1,1.95,0.25v-0.25c0-1.19-0.73-1.8-1.94-1.8
			c-0.65,0-1.19,0.16-1.67,0.39c-0.05,0.02-0.09,0.03-0.13,0.03c-0.14,0-0.27-0.13-0.27-0.27c0-0.14,0.1-0.23,0.16-0.25
			c0.6-0.27,1.19-0.44,1.94-0.44c0.79,0,1.43,0.22,1.85,0.65c0.39,0.39,0.6,0.93,0.6,1.66v3.42c0,0.17-0.12,0.29-0.28,0.29
			s-0.28-0.12-0.28-0.29v-0.74c-0.4,0.56-1.13,1.12-2.25,1.12C69.6,100.05,68.42,99.43,68.42,98.21z M72.95,97.71v-0.67
			c-0.5-0.13-1.15-0.27-1.99-0.27c-1.24,0-1.94,0.55-1.94,1.37v0.02c0,0.85,0.81,1.35,1.71,1.35
			C71.92,99.52,72.95,98.78,72.95,97.71z"/>
		<path fill="#888C91" d="M74.65,94.28c0-0.16,0.11-0.29,0.28-0.29c0.16,0,0.29,0.12,0.29,0.29v1.43c0.51-1.14,1.53-1.76,2.36-1.76
			c0.17,0,0.3,0.14,0.3,0.31c0,0.16-0.12,0.3-0.3,0.31c-1.24,0.12-2.36,1.05-2.36,2.94v2.17c0,0.16-0.11,0.29-0.28,0.29
			c-0.16,0-0.29-0.12-0.29-0.29V94.28z"/>
		<path fill="#888C91" d="M78.4,91.74c0-0.16,0.12-0.29,0.28-0.29c0.16,0,0.29,0.13,0.29,0.29v6.06l3.61-3.73
			c0.06-0.06,0.12-0.08,0.2-0.08c0.15,0,0.27,0.12,0.27,0.27c0,0.08-0.02,0.13-0.09,0.2l-2.15,2.19l2.3,2.85
			c0.06,0.07,0.08,0.13,0.08,0.21c0,0.16-0.11,0.26-0.28,0.26c-0.1,0-0.16-0.03-0.24-0.13l-2.26-2.79l-1.43,1.44v1.19
			c0,0.17-0.11,0.29-0.28,0.29c-0.16,0-0.29-0.12-0.29-0.29V91.74z"/>
		<path fill="#888C91" d="M86.17,100.05c-1.54,0-2.88-1.23-2.88-3.06v-0.02c0-1.71,1.2-3.06,2.79-3.06c1.65,0,2.7,1.36,2.7,3.04
			c0,0.14-0.14,0.27-0.28,0.27h-4.61c0.1,1.46,1.15,2.31,2.3,2.31c0.84,0,1.43-0.35,1.9-0.81c0.05-0.05,0.1-0.08,0.18-0.08
			c0.15,0,0.28,0.12,0.28,0.27c0,0.06-0.02,0.13-0.09,0.2C87.89,99.67,87.23,100.05,86.17,100.05z M88.17,96.7
			c-0.08-1.19-0.76-2.28-2.11-2.28c-1.16,0-2.06,0.98-2.17,2.28H88.17z"/>
		<path fill="#888C91" d="M89.87,98.4v-3.85h-0.63c-0.14,0-0.27-0.13-0.27-0.27c0-0.14,0.13-0.25,0.27-0.25h0.63V92.4
			c0-0.16,0.11-0.29,0.28-0.29c0.16,0,0.29,0.13,0.29,0.29v1.64h1.84c0.14,0,0.27,0.13,0.27,0.27c0,0.14-0.13,0.25-0.27,0.25h-1.84
			v3.79c0,0.84,0.5,1.14,1.18,1.14c0.4,0,0.59-0.12,0.67-0.12c0.13,0,0.25,0.12,0.25,0.25c0,0.11-0.07,0.2-0.18,0.24
			c-0.23,0.08-0.5,0.15-0.83,0.15C90.61,100.01,89.87,99.52,89.87,98.4z"/>
		<path fill="#888C91" d="M93.32,92.02c0-0.2,0.15-0.35,0.35-0.35s0.36,0.15,0.36,0.35v0.2c0,0.2-0.16,0.35-0.36,0.35
			s-0.35-0.15-0.35-0.35V92.02z M93.39,94.28c0-0.16,0.12-0.29,0.28-0.29s0.29,0.12,0.29,0.29v5.39c0,0.17-0.12,0.29-0.28,0.29
			c-0.16,0-0.29-0.12-0.29-0.29V94.28z"/>
		<path fill="#888C91" d="M95.31,94.28c0-0.16,0.12-0.29,0.28-0.29c0.16,0,0.29,0.12,0.29,0.29v0.85c0.39-0.69,1.05-1.23,2.12-1.23
			c1.49,0,2.35,1.01,2.35,2.42v3.35c0,0.17-0.12,0.29-0.28,0.29s-0.29-0.12-0.29-0.29v-3.25c0-1.21-0.68-2-1.87-2
			c-1.15,0-2.04,0.88-2.04,2.1v3.16c0,0.17-0.12,0.29-0.28,0.29s-0.29-0.12-0.29-0.29V94.28z"/>
		<path fill="#888C91" d="M101.52,100.97c-0.08-0.06-0.13-0.15-0.13-0.25c0-0.13,0.14-0.27,0.29-0.27c0.07,0,0.12,0.02,0.16,0.05
			c0.67,0.5,1.44,0.75,2.26,0.75c1.35,0,2.3-0.77,2.3-2.28v-0.85c-0.51,0.73-1.29,1.36-2.45,1.36c-1.42,0-2.82-1.08-2.82-2.76v-0.02
			c0-1.69,1.41-2.79,2.82-2.79c1.18,0,1.97,0.62,2.45,1.31v-0.93c0-0.16,0.12-0.29,0.28-0.29c0.16,0,0.29,0.13,0.29,0.29V99
			c0,0.85-0.28,1.52-0.75,1.99c-0.51,0.51-1.27,0.78-2.13,0.78C103.15,101.78,102.28,101.5,101.52,100.97z M106.44,96.7v-0.02
			c0-1.36-1.21-2.23-2.43-2.23c-1.23,0-2.27,0.85-2.27,2.22v0.02c0,1.32,1.06,2.25,2.27,2.25C105.23,98.93,106.44,98.03,106.44,96.7
			z"/>
	</g>
</g>
</svg>
